#!OML:ASF I:\Random Stuff\random\construction\7_22_03\Session 2\subj1.ASF
:FULLY-SPECIFIED
:DEGREES
3126
root 4.79815 17.7635 -0.257479 9.87505 140.839 -2.78943
lowerback 4.83181 6.9375 1.83442
upperback 1.1163 9.83983 6.2259
thorax -2.33239 5.07131 4.69875
lowerneck -25.1654 -4.37748 1.92852
upperneck 42.7926 -7.28746 7.51813
head 22.9476 0.089528 2.39095
rclavicle -6.59965e-014 1.43125e-013
rhumerus -4.72121 41.7956 -88.375
rradius 41.8932
rwrist -4.79661
rhand 9.70549 33.2245
rfingers 7.12502
rthumb 34.847 6.63281
lclavicle -6.59965e-014 1.43125e-013
lhumerus 13.7581 19.6313 37.8698
lradius 131.282
lwrist 82.6492
lhand -22.5324 67.8091
lfingers 7.12502
lthumb 3.8947 982.247
rfemur -13.6663 -21.2841 19.9059
rtibia 32.3396
rfoot -17.0865 -40.7259
rtoes 10.7909
lfemur -25.2515 -27.0127 -18.1148
ltibia 12.1266
lfoot 0.451977 -20.339
ltoes -14.0263
3127
root 4.78798 17.7639 -0.274766 9.8643 140.805 -2.78898
lowerback 4.9545 6.93657 1.94725
upperback 1.05005 9.85252 6.19733
thorax -2.44651 5.07527 4.58635
lowerneck -25.1822 -4.46328 1.87376
upperneck 42.7978 -7.4491 7.64539
head 22.9942 0.0452192 2.43417
rclavicle 2.3059e-014 6.36111e-015
rhumerus -4.98255 42.6521 -88.1346
rradius 42.0878
rwrist -3.39611
rhand 9.29408 33.9094
rfingers 7.12502
rthumb 34.4565 7.22814
lclavicle 2.3059e-014 6.36111e-015
lhumerus 13.4909 20.035 37.8349
lradius 130.614
lwrist 82.8324
lhand -22.808 68.0186
lfingers 7.12502
lthumb 3.62856 982.033
rfemur -13.5674 -21.1345 19.8117
rtibia 32.2554
rfoot -16.3015 -40.8611
rtoes 8.74104
lfemur -25.1811 -27.0087 -18.2028
ltibia 12.0901
lfoot 0.476025 -20.324
ltoes -13.9955
3128
root 4.77667 17.7635 -0.290925 9.92285 140.767 -2.74695
lowerback 5.01002 6.9536 2.10763
upperback 0.973224 9.89034 6.17141
thorax -2.52862 5.09179 4.45762
lowerneck -25.0635 -4.59812 1.86001
upperneck 42.6706 -7.66536 7.63229
head 22.8519 -0.0478888 2.35606
rclavicle -8.66701e-014 -1.59028e-014
rhumerus -5.25653 43.7262 -87.6634
rradius 42.2379
rwrist -1.77917
rhand 8.3967 34.5548
rfingers 7.12502
rthumb 33.6041 7.684
lclavicle -8.66701e-014 -1.59028e-014
lhumerus 13.2293 20.4161 37.8929
lradius 129.916
lwrist 82.9869
lhand -23.1107 68.2597
lfingers 7.12502
lthumb 3.33622 981.787
rfemur -13.5088 -20.9589 19.7768
rtibia 32.1476
rfoot -15.9882 -40.9389
rtoes 8.1147
lfemur -25.1777 -26.8778 -18.2712
ltibia 12.0787
lfoot 0.532799 -20.445
ltoes -13.8953
3129
root 4.76779 17.7645 -0.304699 10.0064 140.739 -2.69996
lowerback 4.98771 6.97005 2.21376
upperback 0.887754 9.91552 6.11027
thorax -2.57791 5.10076 4.3328
lowerneck -25.3083 -4.66568 1.92303
upperneck 43.0754 -7.7075 7.51713
head 23.2915 -0.0189338 2.32369
rclavicle -2.82274e-014 1.27222e-014
rhumerus -5.50482 44.8246 -87.152
rradius 42.1078
rwrist -0.0365752
rhand 6.85147 35.2008
rfingers 7.12502
rthumb 32.1343 8.02191
lclavicle -2.82274e-014 1.27222e-014
lhumerus 12.9661 20.8288 37.9071
lradius 129.179
lwrist 83.1652
lhand -23.073 68.1882
lfingers 7.12502
lthumb 3.37264 981.859
rfemur -13.4646 -20.7666 19.7719
rtibia 32.0213
rfoot -16.228 -40.9533
rtoes 8.46391
lfemur -25.2226 -26.7179 -18.3193
ltibia 12.1093
lfoot 0.582919 -20.6023
ltoes -13.7168
3130
root 4.75917 17.7667 -0.316246 10.055 140.731 -2.66168
lowerback 5.03334 6.97358 2.34198
upperback 0.78392 9.92409 6.00521
thorax -2.67109 5.09852 4.14224
lowerneck -25.445 -4.76209 2.07503
upperneck 43.3959 -7.8122 7.32756
head 23.6099 -0.0149739 2.20239
rclavicle 8.54774e-014 -5.08889e-014
rhumerus -5.793 45.7376 -86.6884
rradius 41.611
rwrist 1.45545
rhand 4.95174 36.0228
rfingers 7.12502
rthumb 30.3239 8.49464
lclavicle 8.54774e-014 -5.08889e-014
lhumerus 12.7113 21.2272 37.7669
lradius 128.47
lwrist 83.3652
lhand -23.0325 68.1801
lfingers 7.12502
lthumb 3.41172 981.867
rfemur -13.3939 -20.5672 19.7616
rtibia 31.8933
rfoot -16.3497 -41.0261
rtoes 8.55216
lfemur -25.2413 -26.5928 -18.3722
ltibia 12.1456
lfoot 0.624901 -20.7225
ltoes -13.4187
3131
root 4.7499 17.7687 -0.327394 10.0933 140.715 -2.62036
lowerback 5.07771 6.92166 2.43021
upperback 0.749053 9.85206 5.90885
thorax -2.6953 5.05672 3.99443
lowerneck -25.6251 -4.76078 2.36163
upperneck 43.5317 -7.86212 7.05736
head 23.7482 -0.00623394 1.99301
rclavicle -3.18055e-015 -1.27222e-014
rhumerus -5.89541 46.5445 -86.1307
rradius 40.8136
rwrist 2.40749
rhand 3.33987 36.6828
rfingers 7.12502
rthumb 28.7853 8.88233
lclavicle -3.18055e-015 -1.27222e-014
lhumerus 12.4478 21.8663 37.3831
lradius 127.782
lwrist 83.6706
lhand -23.1543 68.3378
lfingers 7.12502
lthumb 3.29411 981.708
rfemur -13.3162 -20.376 19.7433
rtibia 31.7661
rfoot -16.1612 -41.153
rtoes 8.51568
lfemur -25.2328 -26.4435 -18.4453
ltibia 12.1813
lfoot 0.612258 -20.8625
ltoes -13.4342
